<?xml version="1.0" encoding="iso-8859-1"?>
<!-- Uploaded to: SVG Repo, www.svgrepo.com, Generator: SVG Repo Mixer Tools -->
<svg fill="#000000" height="800px" width="800px" version="1.1" id="Layer_1" xmlns="http://www.w3.org/2000/svg" xmlns:xlink="http://www.w3.org/1999/xlink" 
	 viewBox="0 0 508 508" xml:space="preserve">
<g>
	<g>
		<path d="M378.756,0h-249.58C57.948,0,0,57.968,0,129.22v249.568C0,450.036,57.948,508,129.176,508h249.58
			C450.02,508,508,450.036,508,378.792V129.22C508,57.968,450.02,0,378.756,0z M500,378.792
			c0,66.836-54.392,121.212-121.244,121.212h-249.58C62.36,500.004,8,445.628,8,378.792V129.22C8,62.38,62.36,8,129.176,8h249.58
			C445.612,8,500,62.38,500,129.22V378.792z"/>
	</g>
</g>
<g>
	<g>
		<path d="M480.192,253.968c-2.208,0-4,1.788-4,4v112.024c0,57.568-48.632,106.2-106.2,106.2H138.004
			c-57.564,0-106.196-48.632-106.196-106.2V138.008c0-57.568,48.632-106.2,106.196-106.2H369.08c2.208,0,4-1.788,4-4
			c0-2.212-1.792-4-4-4H138.004c-61.9,0-114.196,52.296-114.196,114.2v231.984c0,61.904,52.296,114.2,114.196,114.2h231.988
			c61.904,0,114.2-52.296,114.2-114.2V257.968C484.192,255.756,482.4,253.968,480.192,253.968z"/>
	</g>
</g>
<g>
	<g>
		<path d="M449.808,58.192c-20.888-20.888-53.872-34.384-84.036-34.384c-2.208,0-4,1.788-4,4c0,2.212,1.792,4,4,4
			c28.152,0,58.916,12.58,78.38,32.04c0.78,0.78,1.804,1.172,2.828,1.172s2.048-0.392,2.828-1.172
			C451.372,62.284,451.372,59.756,449.808,58.192z"/>
	</g>
</g>
<g>
	<g>
		<path d="M480.192,166.668c-2.208,0-4,1.788-4,4v59.524c0,2.212,1.792,4,4,4s4-1.788,4-4v-59.524
			C484.192,168.456,482.4,166.668,480.192,166.668z"/>
	</g>
</g>
<g>
	<g>
		<g>
			<path d="M330.416,282l-1.92-0.924c-2.644-1.312-22.184-10.876-26.076-12.296c-3.048-1.092-8.732-3.136-13.16,3.408
				c-2.204,3.32-8.848,11.116-11.552,14.18c-0.8,0.904-1.02,1.144-3.34-0.016c-0.652-0.324-1.54-0.708-2.632-1.176
				c-5.292-2.276-15.14-6.504-26.692-16.72c-1.656-1.464-4.188-1.308-5.648,0.348c-1.464,1.652-1.312,4.18,0.344,5.644
				c12.516,11.068,23.536,15.804,28.836,18.08c0.932,0.4,1.692,0.724,2.228,0.988c1.944,0.964,7.844,3.924,12.912-1.868
				c0.088-0.1,9.1-10.352,12.188-15.008c0.928-1.368,0.928-1.372,3.788-0.336c3.04,1.108,20.396,9.532,25.248,11.94l2.008,0.972
				c1.308,0.628,2.9,1.392,3.412,1.752c0.304,1.776,0.052,7.568-2.4,14.396c-2.42,6.732-15.816,14.536-21.932,15.076
				c-1.472,0.132-2.672,0.424-3.736,0.676c-4.02,0.976-9.04,2.176-39.516-9.728c-21.972-8.592-43.796-27.616-61.448-53.572
				c-0.46-0.676-0.776-1.132-0.944-1.356c-3.404-4.476-14.512-20.308-14.512-36.104c0-15.552,7.636-23.64,11.308-27.528l0.772-0.824
				c2.8-3.044,5.88-3.372,7.072-3.372c1.208,0,2.412,0.08,3.576,0.156c1.644,0.104,3.084,0.216,4.708,0.108
				c1.22-0.088,2.028-0.128,3.676,3.792c1.076,2.56,2.66,6.4,4.324,10.416c4.028,9.748,6.716,16.228,7.356,17.5
				c0.756,1.496,0.7,2.16,0.316,2.924l-0.556,1.116c-0.896,1.82-1.388,2.82-2.632,4.256c-0.7,0.804-1.416,1.668-2.132,2.528
				c-1.164,1.4-2.312,2.796-3.296,3.776c-1.832,1.796-6.12,5.996-2.296,12.476c1.124,1.904,3.576,2.528,5.476,1.416
				c1.908-1.12,2.54-3.572,1.416-5.476c-0.64-1.088-0.64-1.088,1.032-2.728c1.22-1.22,2.544-2.812,3.824-4.356
				c0.676-0.808,1.352-1.628,2.02-2.392c1.924-2.224,2.776-3.96,3.764-5.968l0.524-1.06c2.396-4.752,0.352-8.8-0.316-10.116
				c-0.548-1.096-4.34-10.264-7.108-16.96c-1.668-4.028-3.26-7.88-4.34-10.452c-3.4-8.1-7.78-8.928-11.576-8.68l-0.576,0.028
				c-0.976,0-2.016-0.068-3.092-0.14c-1.332-0.088-2.712-0.172-4.092-0.172c-2.252,0-8.016,0.58-12.956,5.952l-0.704,0.752
				c-4.036,4.276-13.492,14.288-13.492,33.02c0,17.796,11.292,34.564,16.144,40.94c0.128,0.172,0.36,0.52,0.7,1.02
				c18.552,27.276,41.688,47.348,65.152,56.524c22.584,8.82,32.392,10.904,38.152,10.904c2.608,0,4.388-0.428,6.14-0.848
				c0.824-0.2,1.624-0.404,2.58-0.488c7.776-0.688,24.86-9.532,28.752-20.336c3.056-8.512,3.864-17.796,1.82-21.176
				C335.92,284.64,333.612,283.532,330.416,282z"/>
			<path d="M256.58,122.236c-73.2,0-132.752,59.112-132.752,131.772c0,27.224,8.32,53.312,24.08,75.576l-15.436,45.492
				c-0.484,1.428-0.124,3.004,0.932,4.084c1.056,1.076,2.632,1.456,4.068,1.012l47.688-15.164
				c21.344,13.584,45.996,20.756,71.416,20.756c73.208,0,132.772-59.104,132.776-131.756
				C389.352,181.348,329.792,122.236,256.58,122.236z M256.576,377.764c-24.496,0-48.228-7.08-68.636-20.484
				c-0.66-0.432-1.424-0.656-2.196-0.656c-0.408,0-0.82,0.064-1.212,0.188l-41.944,13.336l13.552-39.944
				c0.42-1.232,0.208-2.592-0.56-3.644c-15.54-21.256-23.756-46.34-23.756-72.552c0-68.248,55.964-123.772,124.752-123.772
				c68.8,0,124.772,55.524,124.772,123.772C381.348,322.248,325.376,377.764,256.576,377.764z"/>
		</g>
	</g>
</g>
<g>
	<g>
		<path d="M256.572,98.04c-86.644,0-157.136,69.968-157.136,155.972c0,27.824,7.456,55.072,21.576,78.928l-27.036,79.776
			c-0.484,1.428-0.124,3.004,0.932,4.084c0.764,0.784,1.8,1.2,2.856,1.2c0.404,0,0.816-0.064,1.208-0.188l83.156-26.42
			c22.744,12.16,48.444,18.576,74.444,18.576c86.66,0,157.164-69.96,157.164-155.956C413.736,168.008,343.232,98.04,256.572,98.04z
			 M256.576,401.968c-25.24,0-50.176-6.368-72.108-18.412c-0.96-0.52-2.096-0.636-3.136-0.304l-77.236,24.544l25.092-74.04
			c0.38-1.12,0.244-2.352-0.372-3.364c-13.984-22.984-21.376-49.4-21.376-76.384c0-81.592,66.904-147.972,149.136-147.972
			c82.248,0,149.164,66.38,149.164,147.976C405.74,335.592,338.824,401.968,256.576,401.968z"/>
	</g>
</g>
</svg>